<svg id="SvgjsSvg1013" width="288" height="288" xmlns="http://www.w3.org/2000/svg" version="1.1" xmlns:xlink="http://www.w3.org/1999/xlink" xmlns:svgjs="http://svgjs.com/svgjs"><defs id="SvgjsDefs1014"></defs><g id="SvgjsG1015"><svg xmlns="http://www.w3.org/2000/svg" width="288" height="288" viewBox="0 0 262 163"><g fill="none" fill-rule="nonzero"><polygon fill="#143055" points="130.68 104.59 97.49 52.71 97.44 96.3 40.24 0 0 0 0 162.57 39.79 162.57 39.92 66.39 96.53 158.26" class="colorFFF svgShape"></polygon><polygon fill="#143055" points="97.5 41.79 137.24 41.79 137.33 41.33 137.33 0 97.54 0 97.49 41.33" class="colorFFF svgShape"></polygon><path fill="#96d8e9" d="M198.66,86.86 C189.139872,86.6795216 180.538723,92.516445 177.19,101.43 C182.764789,93.0931021 193.379673,89.7432211 202.73,93.37 C207.05,95.13 212.73,97.97 217.23,96.45 C212.950306,90.4438814 206.034895,86.8725952 198.66,86.86 L198.66,86.86 Z" class="color96D8E9 svgShape"></path><path fill="#48c4e5" d="M243.75,106.42 C243.75,101.55 241.1,100.42 235.6,98.42 C231.52,97 226.89,95.4 223.52,91 C222.86,90.13 222.25,89.15 221.6,88.11 C220.14382,85.4164099 218.169266,83.037429 215.79,81.11 C212.58,78.75 208.37,77.6 202.91,77.6 C191.954261,77.6076705 182.084192,84.2206169 177.91,94.35 C183.186964,87.0278244 191.956716,83.0605026 200.940147,83.9314609 C209.923578,84.8024193 217.767888,90.3805017 221.54,98.58 C223.424615,101.689762 227.141337,103.174819 230.65,102.22 C236.02,101.07 235.65,106.15 243.76,107.87 L243.75,106.42 Z" class="color48C4E5 svgShape"></path><path fill="#143055" d="M261.46 105.38L261.46 105.27C261.34 73.03 235.17 45.45 202.91 45.45 183.207085 45.4363165 164.821777 55.3450614 154 71.81L153.79 71.45 137.23 45.45 97.5 45.4499858 135.25 104.57 98.41 162.57 137 162.57 153.79 136.78 170.88 162.57 209.48 162.57 174.48 107.49C173.899005 106.416838 173.583536 105.220114 173.56 104 173.557346 96.2203871 176.64661 88.7586448 182.147627 83.2576275 187.648645 77.7566101 195.110387 74.6673462 202.89 74.67 219.11 74.67 221.82 84.37 225.32 88.93 232.23 97.93 246.03 93.99 246.03 105.73L246.03 105.73C246.071086 108.480945 247.576662 111.001004 249.979593 112.340896 252.382524 113.680787 255.317747 113.636949 257.679593 112.225896 260.041438 110.814842 261.471086 108.250945 261.43 105.5L261.43 105.5 261.43 105.38 261.46 105.38zM261.5 113.68C261.892278 116.421801 261.504116 119.218653 260.38 121.75 258.18 126.84 254.51 125.14 254.51 125.14 254.51 125.14 251.35 123.6 253.27 120.65 255.4 117.36 259.61 117.74 261.5 113.68z" class="colorFFF svgShape"></path></g></svg></g></svg>